<?xml version="1.0" encoding="UTF-8"?>
<!--Generator: Apple Native CoreSVG 341-->
<!DOCTYPE svg
PUBLIC "-//W3C//DTD SVG 1.1//EN"
       "http://www.w3.org/Graphics/SVG/1.1/DTD/svg11.dtd">
<svg version="1.1" xmlns="http://www.w3.org/2000/svg" xmlns:xlink="http://www.w3.org/1999/xlink" viewBox="0 0 107.528 94.4795">
 <g>
  <path d="M1.44434 6.02637C0.398438 11.1064 0 17.7305 0 22.1631C0 59.417 22.1631 84.0205 56.0303 84.0205C77.8447 84.0205 88.1045 71.1709 90.3457 67.0371L84.1201 66.8877C90.5947 73.6611 93.4834 80.9326 96.7705 91.2422C97.5176 93.6328 99.1611 94.4795 100.904 94.4795C104.59 94.4795 107.528 91.292 107.528 86.9092C107.528 80.0361 97.667 68.083 92.5371 63.252C70.7227 43.1309 37.5029 55.0342 28.9365 32.8213C28.2891 31.1279 30.082 29.6338 31.7256 31.3271C48.9082 48.5098 71.0215 34.0166 92.5371 53.8389C94.2305 55.333 96.2227 54.5361 96.5215 52.7432C96.7705 51.2988 96.9199 49.0078 96.9199 46.8164C96.9199 22.5117 79.9863 10.8076 56.1797 10.8076C48.2109 10.8076 38.8975 12.75 31.5762 12.75C23.5576 12.75 14.543 12.1025 7.37109 4.43262C5.3291 2.34082 2.24121 2.63965 1.44434 6.02637Z" fill="black" fill-opacity="0.85"/>
 </g>
</svg>
